
	<svg xmlns="http://www.w3.org/2000/svg" xmlns:xlink="http://www.w3.org/1999/xlink" version="1.1" width="128" height="128" viewBox="0 0 100 100">


		<defs>
			<g id="background">
<path fill="url(#background-gradient)" stroke="none" d=" M 90.75 23.05 Q 89.5 23.05 88.85 24.15 88.15 25.25 88.85 26.35 97.25 40.2 95.15 56.15 93.05 71.65 81.75 82.6 70.35 93.7 54.9 95.25 32.95 97.55 17.6 81.85 2.2 66.2 4.85 44.2 6.6 30.2 16.15 19.7 25.65 9.1 39.25 5.8 50.55 3 61.7 5.95 62.85 6.3 63.7 5.65 64.6 5 64.6 3.85 64.6 2.25 62.95 1.7 52.55 -1.1 41.6 0.65 25.55 3.3 14.4 14.85 3.1 26.25 0.65 42.4 -2.95 66.9 14 84.5 30.85 102.1 55.2 99.7 72.6 97.9 85.2 85.4 97.95 72.8 99.7 55.35 101.45 38.55 92.75 24.05 92.05 23.05 90.75 23.05 Z"/>
</g><mask id="mask">
<path fill="#FFFFFF" stroke="none" d=" M 82.2 82.15 Q 95.5 68.85 95.5 49.95 95.5 31.1 82.2 17.8 68.85 4.5 50 4.5 31.15 4.5 17.8 17.8 4.5 31.1 4.5 49.95 4.5 68.85 17.8 82.15 31.15 95.45 50 95.45 68.85 95.45 82.2 82.15 Z"/>
</mask>
			
	<linearGradient id="background-gradient" x1="0" y1="0" y2="1" x2="0" >
		<stop stop-color="#36C8EB" offset="0%"/>
		<stop stop-color="#36C8EB" offset="100%"/>
	</linearGradient>

			
			
			<g transform="scale(3.3333333333333335) translate(0 7.599592208862305e-7)" id="picture"><path d="M18.5 29.8c-.1 0-.2 0-.3-.1-.1-.1-.2-.2-.2-.4v-4.6c0-1.2-.2-2.2-.4-2.8-.1-.1-.1-.3 0-.4l.3-.3c3.6-.8 6.1-3.7 6.1-7 0-1.5-.6-2.9-1.9-4.2-.1-.1-.1-.3-.1-.5.5-1 0-2.4-.7-3.2-.7.3-1.4 1.1-2 1.7-.1.2-.4.2-.6.1l-.3-.1c-1.1-.4-2.4-.9-3.6-.9s-2.5.5-3.6.9l-.3.1c-.2.1-.4 0-.6-.1-.6-.7-1.3-1.4-2-1.7-.4.8-.8 2.2-.3 3.2 0 .2 0 .4-.1.6C6.7 11.3 6 12.9 6 14.5c0 3.1 2.3 5.8 5.6 6.8.2.1.4.3.4.5v.5c0 1.5-1 2-1.5 2-1.2 0-1.9-.7-2.6-1.4-.4-.4-.9-.8-1.5-1.2.2.2.3.5.5.7.9 1.3 1.9 2.8 3.5 2.8h1c.1 0 .3.1.4.1.1.1.1.2.1.4v3.6c0 .2-.1.3-.2.4s-.3.1-.4.1C4.7 28.1 0 22.1 0 15.2 0 6.9 6.7.2 15 .2s15 6.7 15 15c0 6.9-4.7 12.9-11.4 14.6h-.1zm.2-7.7c.2.7.3 1.6.3 2.7v3.9c5.9-1.8 10-7.2 10-13.4 0-7.7-6.3-14-14-14S1 7.5 1 15.2c0 6.2 4.1 11.7 10 13.4v-2.4h-.5c-2.1 0-3.4-1.8-4.3-3.3-.6-.9-1.2-1.7-1.7-1.7-.3 0-.5-.2-.5-.5s.2-.5.5-.5c2.2 0 3.3 1.1 4.2 1.9.6.6 1.1 1.1 1.8 1.1 0 0 .5-.1.5-1v-.1c-3.6-1.2-6-4.2-6-7.6 0-1.7.7-3.5 1.9-4.9-.5-1.5.2-3.2 1.2-4.2.1-.1.3-.2.5-.1 1 .3 1.8 1.1 2.5 1.9 1.2-.4 2.5-.9 3.8-.9s2.7.5 3.8.9c.7-.8 1.6-1.6 2.5-1.9.2 0 .4 0 .5.1 1 1 1.7 2.8 1.2 4.2 1.3 1.4 1.9 3 1.9 4.6.2 3.6-2.4 6.8-6.1 7.9z"/></g>
			
	<linearGradient id="picture-gradient" x1="0" y1="0" y2="1" x2="0" >
		<stop stop-color="#ffffff" offset="0%"/>
		<stop stop-color="#e5eff9" offset="100%"/>
	</linearGradient>

		</defs>

		

			<use xlink:href="#background" fill="url(#background-gradient)" />

		

			<g mask="url(#mask)">
				<g transform="
				        translate(
                                50 50
)
                            translate(0 0)  scale(0.5)  
                            translate(
                                -50 -50
)">
						<use xlink:href="#picture" fill="url(#picture-gradient)"  />
				</g>
			</g>

		



	</svg>
