
	<svg xmlns="http://www.w3.org/2000/svg" xmlns:xlink="http://www.w3.org/1999/xlink" version="1.1" width="128" height="128" viewBox="0 0 100 100">


		<defs>
			<g id="background">
<path fill="url(#background-gradient)" stroke="none" d=" M 90.75 23.05 Q 89.5 23.05 88.85 24.15 88.15 25.25 88.85 26.35 97.25 40.2 95.15 56.15 93.05 71.65 81.75 82.6 70.35 93.7 54.9 95.25 32.95 97.55 17.6 81.85 2.2 66.2 4.85 44.2 6.6 30.2 16.15 19.7 25.65 9.1 39.25 5.8 50.55 3 61.7 5.95 62.85 6.3 63.7 5.65 64.6 5 64.6 3.85 64.6 2.25 62.95 1.7 52.55 -1.1 41.6 0.65 25.55 3.3 14.4 14.85 3.1 26.25 0.65 42.4 -2.95 66.9 14 84.5 30.85 102.1 55.2 99.7 72.6 97.9 85.2 85.4 97.95 72.8 99.7 55.35 101.45 38.55 92.75 24.05 92.05 23.05 90.75 23.05 Z"/>
</g><mask id="mask">
<path fill="#FFFFFF" stroke="none" d=" M 82.2 82.15 Q 95.5 68.85 95.5 49.95 95.5 31.1 82.2 17.8 68.85 4.5 50 4.5 31.15 4.5 17.8 17.8 4.5 31.1 4.5 49.95 4.5 68.85 17.8 82.15 31.15 95.45 50 95.45 68.85 95.45 82.2 82.15 Z"/>
</mask>
			
	<linearGradient id="background-gradient" x1="0" y1="0" y2="1" x2="0" >
		<stop stop-color="#36C8EB" offset="0%"/>
		<stop stop-color="#36C8EB" offset="100%"/>
	</linearGradient>

			
			
			<g transform="scale(3.3333333333333335)" id="picture"><path d="M7 30H1c-.3 0-.5-.2-.5-.5v-19c0-.3.2-.5.5-.5h6c.3 0 .5.2.5.5v19c0 .3-.2.5-.5.5zm-5.5-1h5V11h-5v18zM29 30h-6c-.3 0-.5-.2-.5-.5V18c0-1.4-.5-2.4-1.4-2.8-1-.4-2.4 0-3.6 1v13.3c0 .3-.2.5-.5.5h-6c-.3 0-.5-.2-.5-.5v-19c0-.3.2-.5.5-.5h6c.3 0 .5.2.5.5v.4c1.9-1.4 5.5-2.5 8.2-1.5 1.7.6 3.8 2.4 3.8 7.1v13c0 .3-.2.5-.5.5zm-5.5-1h5V16.5c0-3.3-1.1-5.4-3.2-6.1-2.8-1.1-6.8.7-8 2-.1.2-.4.2-.6.1s-.3-.3-.3-.5v-1h-5v18h5V16c0-.1.1-.3.1-.4 1.4-1.4 3.3-2 4.8-1.4 1.3.5 2.1 1.9 2.1 3.7V29zM4 7C2.1 7 .5 5.4.5 3.5S2.1 0 4 0s3.5 1.6 3.5 3.5S5.9 7 4 7zm0-6C2.6 1 1.5 2.1 1.5 3.5S2.6 6 4 6s2.5-1.1 2.5-2.5S5.4 1 4 1z"/></g>
			
	<linearGradient id="picture-gradient" x1="0" y1="0" y2="1" x2="0" >
		<stop stop-color="#ffffff" offset="0%"/>
		<stop stop-color="#e5eff9" offset="100%"/>
	</linearGradient>

		</defs>

		

			<use xlink:href="#background" fill="url(#background-gradient)" />

		

			<g mask="url(#mask)">
				<g transform="
				        translate(
                                50 50
)
                            translate(0 0)  scale(0.5)  
                            translate(
                                -50 -50
)">
						<use xlink:href="#picture" fill="url(#picture-gradient)"  />
				</g>
			</g>

		



	</svg>
